<svg xmlns="http://www.w3.org/2000/svg" width="237" height="134" fill="none" viewBox="0 0 237 134">
  <path fill="#108441" d="M52.43 70.278v.626h30.678l30.772-35.196V0L52.43 70.278Z"/>
  <path fill="#1F4A23" d="M184.241 70.278v.626h-30.678l-30.772-35.196V0l61.45 70.278Z"/>
  <path fill="#108441" d="M15.472 117.969 8.108 96.582H.582v36.808h6.926v-22.133l7.628 22.133h7.262V96.582h-6.926v21.387Z"/>
  <path fill="#108441" d="M22.98 133.965h-8.26l-6.637-19.257v19.257H0V96.001h8.52l6.37 18.511V96.001h8.083v37.964h.007Zm-7.433-1.156h6.27V97.157h-5.77v24.276l-8.35-24.276h-6.54v35.652h5.77V107.8l8.62 25.009Zm21.21-36.227-7.704 36.808h7.439l1.535-8.203H45.7l1.668 8.203h7.508l-8.253-36.808h-9.866Zm7.862 23.087h-5.593l2.667-14.359 2.926 14.359Z"/>
  <path fill="#108441" d="M55.603 133.965h-8.702l-1.669-8.203h-6.718l-1.536 8.203h-8.633l7.944-37.964H47.09l8.513 37.964Zm-7.76-1.156h6.313l-7.995-35.652h-8.93l-7.458 35.652h6.245l1.535-8.204h8.627l1.662 8.204Zm-2.516-12.565h-7.002l3.343-17.961 3.66 17.961Zm-5.612-1.156h4.19l-2.193-10.751-1.997 10.751ZM90.23 96.582H79.254v36.808h14.555a4.96 4.96 0 0 0 1.207-.278c3.855-1.302 6.39-4.993 6.39-9.063v-.727c0-1.517-.222-3.027-.708-4.462a8.086 8.086 0 0 0-.291-.745c-.708-1.524-1.947-2.705-3.438-3.47-.02-.006-.032-.019-.044-.025.322-.228 1.017-1.675 1.77-3.42 2.319-5.384-.077-11.749-5.5-13.992-.96-.386-1.952-.626-2.963-.626Zm-1.181 15.339c-1.321.032-2.402.05-2.402.05v-9.985s1.081.025 2.402.05a4.864 4.864 0 0 1 4.759 4.867v.145a4.869 4.869 0 0 1-4.76 4.873Zm-2.395 5.454s1.01.025 2.275.051a4.999 4.999 0 0 1 4.885 4.999v.796a4.71 4.71 0 0 1-4.6 4.708c-1.391.032-2.56.057-2.56.057v-10.611Z"/>
  <path fill="#108441" d="M93.833 133.965H78.678V96.001H90.23c1.023 0 2.092.227 3.185.682 2.692 1.113 4.79 3.236 5.903 5.973a11.443 11.443 0 0 1-.095 8.785c-.702 1.636-1.15 2.515-1.44 3.008 1.415.853 2.495 2.029 3.146 3.432.102.221.209.486.316.802.493 1.448.74 3.015.74 4.646v.726c0 4.374-2.724 8.235-6.788 9.607-.512.17-.967.278-1.346.303h-.019Zm-13.999-1.156H93.79a4.702 4.702 0 0 0 1.043-.247c3.59-1.213 5.997-4.633 5.997-8.513v-.727c0-1.51-.227-2.945-.676-4.278a9.043 9.043 0 0 0-.265-.689c-.626-1.346-1.726-2.452-3.18-3.192l-.107-.063-.695-.474.676-.474c.076-.076.443-.544 1.58-3.185a10.308 10.308 0 0 0 .089-7.888c-.993-2.446-2.87-4.342-5.271-5.34-.954-.392-1.877-.594-2.743-.594H79.834v35.664Zm6.238-4.229v-11.799l2.863.063c3.008.07 5.454 2.566 5.454 5.574v.797c0 2.85-2.32 5.22-5.17 5.29l-3.147.075Zm1.157-10.611v9.43l1.965-.045c2.225-.05 4.039-1.902 4.039-4.127v-.796c0-2.383-1.94-4.367-4.323-4.418l-1.681-.044Zm-1.157-5.403v-11.174l2.99.069c2.938.064 5.327 2.509 5.327 5.448v.146c0 2.938-2.389 5.384-5.328 5.447l-2.989.064Zm1.157-9.992v8.803l1.807-.038c2.313-.05 4.197-1.978 4.197-4.291v-.145c0-2.313-1.884-4.235-4.197-4.291l-1.807-.038Zm141.125-5.992-4.974 17.715-5.27-17.715h-7.654l9.246 25.034v11.774h7.464v-11.781l8.835-25.027h-7.647Z"/>
  <path fill="#108441" d="M227.748 133.965h-8.621v-12.248l-9.499-25.716h8.918l4.822 16.211 4.544-16.211h8.905l-9.069 25.71v12.254Zm-7.464-1.156h6.307v-11.301l.032-.094 8.563-24.257h-6.389l-5.391 19.226-5.72-19.226h-6.389l8.999 24.351v11.301h-.012Zm-106.417-4.936v-10.725h9.613v-5.518h-9.613v-9.537h11.617v-5.51h-19.08v36.807h30.026l1.03-5.517h-23.593Z"/>
  <path fill="#108441" d="M136.91 133.965h-31.082V96.001h20.237v6.674h-11.616v8.38h9.613v6.674h-9.613v9.568h23.712l-1.251 6.668Zm-29.925-1.156h28.964l.816-4.361h-23.479v-11.882h9.613v-4.361h-9.613v-10.693h11.616v-4.36h-17.923v35.657h.006Z"/>
  <path fill="#108441" d="M146.554 96.582h-9.865l-5.985 28.605h14.928l1.668 8.203h7.508l-8.254-36.808Zm-7.596 23.087 2.667-14.359 2.926 14.359h-5.593Z"/>
  <path fill="#108441" d="M155.535 133.965h-8.702l-1.669-8.203h-15.168l6.225-29.761h10.801l8.513 37.964Zm-7.754-1.156h6.313l-7.995-35.652h-8.93l-5.745 27.448h14.688l1.669 8.204Zm-2.522-12.565h-7.003l3.344-17.961 3.659 17.961Zm-5.606-1.156h4.19l-2.193-10.751-1.997 10.751Zm34.741 7.837c0 .632-.12.796-.12.796.007.019-.246.152-1.194.152h-3.805c-.954 0-1.169-.158-1.175-.165 0 0-.133-.151-.133-.783V96.582h-7.464v31.139c0 2.585 1.207 5.675 6.971 5.675h7.413c5.758 0 6.971-3.084 6.971-5.675v-22.929h-7.464v22.133Z"/>
  <path fill="#108441" d="M174.881 133.965h-7.414c-6.566 0-7.546-3.918-7.546-6.25V96.001h8.621v30.924c0 .139.006.246.019.322.139.025.366.044.714.044h3.805c.341 0 .568-.019.714-.038.006-.082.012-.189.012-.328v-22.714h8.621v23.51c.006 2.332-.973 6.244-7.546 6.244Zm-13.797-36.808v30.558c0 3.381 2.149 5.094 6.39 5.094h7.413c4.241 0 6.39-1.713 6.39-5.094v-22.348h-6.301v21.558c0 .328-.032.6-.089.815l.032.095-.177.234c-.095.126-.285.379-1.656.379h-3.805c-.752 0-1.257-.089-1.51-.272l-.076-.063c-.202-.202-.303-.607-.303-1.195V97.151h-6.308v.006Z"/>
  <path fill="#108441" d="M174.394 96.582v5.518l17.33-.007v31.297h7.394v-31.297h7.015v-5.51h-31.739Z"/>
  <path fill="#108441" d="M199.699 133.965h-8.551v-31.29h-17.335v-6.68h32.895v6.673h-7.009v31.297Zm-7.394-1.156h6.238v-31.291h7.009v-4.36h-30.583v4.36h17.336v31.291Z"/>
</svg>
